<svg width="40" height="34" viewBox="0 0 40 34" fill="none" xmlns="http://www.w3.org/2000/svg">
<path d="M0 18.9833C0.156298 18.396 0.275085 17.7897 0.475147 17.215C1.50672 14.3227 4.25132 12.3334 7.30226 12.2829C9.03405 12.2513 10.7658 12.2703 12.4914 12.2703C12.6602 12.2703 12.8227 12.2703 13.0353 12.2703C13.1478 14.2469 13.8605 15.9331 15.2422 17.3224C10.4407 19.1791 8.5464 22.7976 8.92151 27.8308C5.8268 27.654 2.88839 27.0225 0 26.0878C0 23.7197 0 21.3515 0 18.9833Z" fill="#297F72"/>
<path d="M10.3094 28.5749C10.3094 27.615 10.2969 26.6551 10.3094 25.6952C10.3719 22.4113 12.6976 19.4116 15.9986 18.6096C16.5863 18.4643 17.2053 18.3822 17.8117 18.3759C19.6623 18.357 21.5128 18.3001 23.3572 18.4264C27.2271 18.698 30.1593 21.8177 30.2843 25.7394C30.3468 27.7729 30.3031 29.819 30.2906 31.8524C30.2906 31.9787 30.153 32.1556 30.0342 32.2187C28.7026 32.9008 27.2709 33.286 25.8142 33.5575C23.7448 33.9491 21.6629 34.0627 19.5622 33.968C16.6488 33.8417 13.8167 33.2797 11.0284 32.4334C10.2969 32.2124 10.2969 32.2124 10.2969 31.4483C10.2969 30.4884 10.2969 29.5285 10.2969 28.5686C10.3031 28.5749 10.3031 28.5749 10.3094 28.5749Z" fill="#297F72"/>
<path d="M31.6918 27.9123C31.6918 27.6407 31.6918 27.4323 31.6918 27.2303C31.6981 25.9293 31.7043 24.6284 31.2979 23.3654C30.3727 20.492 28.4971 18.5406 25.6962 17.486C25.6087 17.4544 25.5211 17.4291 25.4399 17.3976C25.4149 17.3912 25.3961 17.3723 25.3398 17.3281C26.7028 15.9388 27.453 14.2716 27.5343 12.3012C27.6343 12.2886 27.7093 12.2697 27.7844 12.2697C29.5286 12.2697 31.2792 12.1812 33.0172 12.3012C35.7806 12.4907 37.8312 13.9116 39.1504 16.3682C39.7443 17.4733 40.0006 18.6669 39.9944 19.9299C39.9881 21.8371 39.9881 23.7443 40.0006 25.6515C40.0006 25.9167 39.9131 26.0493 39.688 26.1567C38.1188 26.8955 36.462 27.325 34.7615 27.5776C33.7675 27.7228 32.7546 27.7986 31.6918 27.9123Z" fill="#297F72"/>
<path d="M14.4277 12.0501C14.4277 8.76618 17.0598 6.11381 20.3108 6.12013C23.5368 6.12644 26.1626 8.79144 26.1626 12.0501C26.1626 15.3276 23.5118 17.9926 20.2733 17.9737C17.016 17.9547 14.4277 15.3276 14.4277 12.0501Z" fill="#297F72"/>
<path d="M9.93505 0.00567627C13.2423 0.0119914 15.8744 2.66435 15.8556 5.92297C15.8556 6.10611 15.7619 6.33977 15.6306 6.45344C14.3489 7.59649 13.5112 8.98582 13.1798 10.6909C13.1548 10.8235 13.0485 10.9814 12.9297 11.0509C9.4724 13.1728 4.81471 10.9246 4.20827 6.88919C3.71437 3.60531 5.90255 0.592985 9.07228 0.0814581C9.37863 0.0309369 9.69122 0.0246217 9.93505 0.00567627Z" fill="#297F72"/>
<path d="M30.0102 5.79768e-05C33.4676 0.0126883 36.1559 3.01238 35.8495 6.51729C35.5119 10.3885 31.4044 12.9209 27.8596 11.4557C27.5907 11.3484 27.4845 11.1905 27.4407 10.919C27.1656 9.08756 26.2903 7.59718 24.8899 6.40993C24.8586 6.38467 24.8336 6.34678 24.8024 6.33415C24.0334 6.02471 24.1084 5.42477 24.2397 4.77431C24.7649 2.03985 27.2344 -0.0125723 30.0102 5.79768e-05Z" fill="#297F72"/>
</svg>
