<svg width="97" height="60" viewBox="0 0 97 60" fill="none" xmlns="http://www.w3.org/2000/svg">
<path d="M91.4037 40.8L83.3731 31.1759V40.8H78.9467V19.2H83.3731V28.8859L91.4037 19.2H96.747L87.6413 29.9071L96.9999 40.8H91.4037Z" fill="#2341B9"/>
<path d="M74.5901 19.2V40.8H70.1637V31.6091H60.7103V40.8H56.2839V19.2H60.7103V28.0813H70.1637V19.2H74.5901Z" fill="#2341B9"/>
<path fillRule="evenodd" clipRule="evenodd" d="M20.9178 0C21.3533 0.400006 21.7888 0.778673 22.2185 1.15222C22.6367 1.5158 23.0493 1.87456 23.451 2.24338C28.1554 6.64705 32.3169 11.4661 35.7548 16.7838C38.2427 20.6475 40.1877 24.7188 41.2733 29.1223C42.8113 35.2709 41.5449 40.9625 37.8355 46.197C33.6287 52.0964 27.9291 56.4584 21.2796 59.9066C21.0987 60.0311 20.6916 60.0311 20.5106 59.9066C16.2586 57.6217 12.3232 54.9212 8.84008 51.6808C6.03557 49.022 3.63813 46.1139 2.00968 42.7074C-0.252058 38.0959 -0.523466 33.3599 0.788339 28.4992C2.10014 23.4723 4.58805 18.9026 7.61878 14.582C11.328 9.22276 15.7611 4.40367 20.9178 0ZM23.9485 45.0338C23.8287 44.8237 23.7114 44.6159 23.5956 44.4107C23.2305 43.7636 22.8787 43.1404 22.501 42.5411C22.3201 42.2504 22.3653 42.0427 22.6367 41.7934C23.858 40.7131 24.9436 39.5085 25.7579 38.0959C27.0245 35.894 27.2507 33.6507 26.165 31.3658C25.1246 29.1639 23.3605 27.4607 21.3249 25.965C21.1892 25.882 20.8273 25.9236 20.6916 26.0066C19.1536 26.9621 17.7965 28.1253 16.6657 29.4548C15.0825 31.3658 14.0421 33.443 13.7255 35.811C13.3636 38.3452 13.7707 40.7962 14.4945 43.2059C15.761 47.6095 17.9775 51.6392 20.5106 55.5445C20.6916 55.7937 20.8726 56.043 21.0987 56.3753C21.56 56.0806 22.0122 55.8022 22.4557 55.5295C23.0125 55.1868 23.5555 54.8527 24.0842 54.5058C28.2458 51.7224 31.9551 48.565 34.8048 44.6184C37.4284 40.9209 38.9211 36.8911 38.3784 32.3628C37.9259 28.6239 36.5689 25.1341 34.8048 21.7691C34.7144 21.6445 34.443 21.5198 34.2619 21.5198C31.4574 21.8521 28.6981 22.4338 26.0293 23.3893C25.8808 23.4461 25.7356 23.503 25.5883 23.5607C25.1972 23.7138 24.7908 23.873 24.2652 24.054C24.396 24.1542 24.5059 24.2253 24.5998 24.2862C24.7006 24.3516 24.7829 24.4049 24.8532 24.4695C26.3911 25.7573 27.703 27.1698 28.7433 28.8316C30.1456 31.1166 30.7338 33.5677 30.1909 36.1433C29.3767 39.8824 26.9341 42.5411 23.9485 45.0338ZM20.8273 10.5107C21.5962 11.3416 22.3653 12.1308 23.1341 12.9201C23.0663 12.9825 22.9985 13.0345 22.9307 13.0863C22.8628 13.1383 22.795 13.1902 22.7271 13.2526C21.4153 14.3328 20.2845 15.5375 19.5155 17.0331C18.7465 18.4871 18.9274 19.8166 20.1036 21.0213C20.1814 21.1106 20.2759 21.1922 20.369 21.2727C20.4927 21.3796 20.6143 21.4846 20.6916 21.6029C20.963 21.9352 21.2344 21.9352 21.6415 21.7691C24.22 20.5228 26.8888 19.6503 29.7386 19.1103C30.3597 18.9807 30.9808 18.8671 31.6239 18.7497C32.0112 18.679 32.4065 18.6067 32.8145 18.5287C29.4672 13.2941 25.4866 8.72424 20.963 4.40367C20.8661 4.49272 20.7691 4.56985 20.6791 4.64144C20.6012 4.70342 20.5284 4.76127 20.4654 4.81911C17.299 7.85184 14.4041 11.0507 11.8256 14.4989C8.65917 18.6948 6.03557 23.057 4.45235 27.9592C2.91437 32.6952 2.9596 37.3481 5.35705 41.8765C6.84979 44.7015 8.84008 47.1526 11.2376 49.3959C12.097 50.1852 13.0017 50.9746 13.8611 51.7224C13.5898 51.0299 13.2781 50.3746 12.9665 49.719C12.8107 49.3912 12.6548 49.0636 12.5041 48.7312C10.7399 44.8676 9.65433 40.9209 10.1067 36.6835C10.559 32.2382 12.5946 28.4992 16.0777 25.3835C16.7109 24.8019 17.4347 24.2618 18.1583 23.7217C17.9322 23.5139 17.7061 23.3062 17.5252 23.0986C16.0324 21.5613 15.3539 19.775 15.7611 17.7393C16.3039 14.665 18.4299 12.5463 20.8273 10.5107Z" fill="#2341B9"/>
</svg>
